<svg xmlns="http://www.w3.org/2000/svg" xmlns:xlink="http://www.w3.org/1999/xlink" width="56" height="56" viewBox="0 0 56 56">
  <defs>
    <filter id="Ellipse_34" x="0" y="0" width="56" height="56" filterUnits="userSpaceOnUse">
      <feOffset dy="3" input="SourceAlpha"/>
      <feGaussianBlur stdDeviation="3" result="blur"/>
      <feFlood flood-opacity="0.161"/>
      <feComposite operator="in" in2="blur"/>
      <feComposite in="SourceGraphic"/>
    </filter>
  </defs>
  <g id="Group_306" data-name="Group 306" transform="translate(-455 -113)">
    <g id="Group_105" data-name="Group 105">
      <g transform="matrix(1, 0, 0, 1, 455, 113)" filter="url(#Ellipse_34)">
        <circle id="Ellipse_34-2" data-name="Ellipse 34" cx="19" cy="19" r="19" transform="translate(9 6)" fill="#0081f5"/>
      </g>
    </g>
    <g id="book" transform="translate(472.318 127.667)">
      <path id="Path_1458" data-name="Path 1458" d="M152.934,63.6V60.2h-5.57v3.4Zm-4.382-2.212h3.194v1.024h-3.194Z" transform="translate(-141.361 -57.822)" fill="#fff"/>
      <path id="Path_1459" data-name="Path 1459" d="M20.424,7.087H14.337V0H2.786A2.61,2.61,0,0,0,.179,2.607V14.583H.191A2.794,2.794,0,0,0,2.97,17.126H8.044V18.2h.008a2.248,2.248,0,0,0,2.237,2.06H20.424V19.071a1.058,1.058,0,1,1,0-2.115Zm-1.2,8.681H11.7V8.276h7.525Zm-8.933,0a2.232,2.232,0,0,0-1.057.265V9.195a.921.921,0,0,1,.919-.919h.357v7.492Zm2.86-8.681h-3A2.11,2.11,0,0,0,8.043,9.195v2.35H4.277V1.188h8.872ZM2.786,1.188h.3V11.545H2.97a2.774,2.774,0,0,0-1.6.508V2.607A1.42,1.42,0,0,1,2.786,1.188Zm.184,14.75a1.6,1.6,0,1,1,0-3.2H8.044v1H3.19v1.188H8.043v1.014H2.97Zm6.262,2.076a1.059,1.059,0,0,1,1.057-1.057h8.137a2.241,2.241,0,0,0,0,2.115H10.289A1.059,1.059,0,0,1,9.232,18.014Z" transform="translate(0)" fill="#fff"/>
      <path id="Path_1460" data-name="Path 1460" d="M347.967,336.047h3.268v1.188h-3.268Z" transform="translate(-334.026 -322.75)" fill="#fff"/>
    </g>
  </g>
</svg>
