<svg xmlns="http://www.w3.org/2000/svg" width="180.905" height="57.232" viewBox="0 0 180.905 57.232">
  <g id="Group_313" data-name="Group 313" transform="translate(-44.001 -39)">
    <g id="Group_312" data-name="Group 312">
      <g id="Group_311" data-name="Group 311">
        <g id="Group_146" data-name="Group 146">
          <g id="logo-new-color" transform="translate(44 42.52)">
            <g id="Group_3" data-name="Group 3" transform="translate(42.769 4.662)">
              <g id="Group_2" data-name="Group 2">
                <g id="Group_1" data-name="Group 1">
                  <path id="Path_1" data-name="Path 1" d="M419.409,77.978h-3.253a.7.7,0,0,0-.7.706v2.828a.706.706,0,0,0,.705.706h3.253a.706.706,0,0,0,.7-.706V78.684a.705.705,0,0,0-.7-.706Z" transform="translate(-372.244 -76.525)" fill="#ee1d42"/>
                  <path id="Path_2" data-name="Path 2" d="M340.178,79.933H331.7a.7.7,0,0,1-.7-.707V77.6c0-1.127.583-1.6,1.656-1.6h.681a.7.7,0,0,0,.7-.705V72.469a.7.7,0,0,0-.7-.7h-2.1c-3.74,0-5.1,2.561-5.1,4.964,0,1.752-.465,3.2-2.679,3.2h-2.481a.706.706,0,0,1-.706-.707V77.6c0-1.127.584-1.6,1.657-1.6h.681a.7.7,0,0,0,.7-.705V72.469a.7.7,0,0,0-.7-.7h-2.1c-3.741,0-5.1,2.561-5.1,4.964,0,1.752-.466,3.2-2.681,3.2a.669.669,0,0,0-.7.695v2.54a.7.7,0,0,0,.7.7H314.7a.706.706,0,0,1,.706.706V99.247a.722.722,0,0,0,.721.721h3.413a.723.723,0,0,0,.721-.721V84.568a.7.7,0,0,1,.706-.705h4.455a.706.706,0,0,1,.7.706V99.247a.723.723,0,0,0,.721.721h3.414a.723.723,0,0,0,.721-.721V84.568a.7.7,0,0,1,.7-.7h3.627a.7.7,0,0,1,.7.705V99.263a.705.705,0,0,0,.7.705h3.444a.7.7,0,0,0,.7-.705V80.638A.707.707,0,0,0,340.178,79.933Z" transform="translate(-293.013 -71.764)" fill="#ee1d42"/>
                  <path id="Path_3" data-name="Path 3" d="M459.32,114.811H456.1a.654.654,0,0,0-.745.744v.566c0,1.619-1.155,2.466-2.851,2.466a2.579,2.579,0,0,1-2.85-2.83v-7.6a2.623,2.623,0,0,1,2.85-2.829c1.7,0,2.851.849,2.851,2.466v.181c0,.534.057.744.745.744h3.183c.687,0,.889-.355.889-.889,0-4.523-2.928-6.741-7.668-6.741-4.855,0-7.706,2.39-7.706,7.938v5.856c0,5.549,2.85,7.938,7.706,7.938s7.707-2.551,7.707-7.125a.877.877,0,0,0-.891-.885Z" transform="translate(-394.728 -94.236)" fill="#ee1d42"/>
                  <path id="Path_4" data-name="Path 4" d="M678.759,82.217h3.254a.706.706,0,0,0,.705-.706V78.684a.706.706,0,0,0-.7-.706h-3.254a.706.706,0,0,0-.7.706v2.828A.705.705,0,0,0,678.759,82.217Z" transform="translate(-573.443 -76.525)" fill="#ee1d42"/>
                  <path id="Path_5" data-name="Path 5" d="M239.455,71.765c-5.162,0-8.786,2.466-8.786,9.324V91.03c0,6.859,3.623,9.324,8.786,9.324s8.784-2.466,8.784-9.324V81.089C248.239,74.231,244.617,71.765,239.455,71.765Zm3.468,19.959c0,3.083-1.35,3.93-3.468,3.93s-3.468-.847-3.468-3.93V80.4c0-3.082,1.348-3.93,3.468-3.93s3.468.848,3.468,3.93Z" transform="translate(-230.669 -71.765)" fill="#ee1d42"/>
                  <path id="Path_6" data-name="Path 6" d="M604.065,87.387a.745.745,0,0,1-.019-.864l6.506-12.3c.229-.433.12-.815-.419-.815H606.27a1.281,1.281,0,0,0-1.043.646l-5.352,10.724c-.174.346-.4.727-.793.727-.327,0-.507-.216-.507-.59v-10.8a.705.705,0,0,0-.7-.706h-3.906a.706.706,0,0,0-.706.706v26.408a.705.705,0,0,0,.705.7h3.907a.7.7,0,0,0,.7-.7V89.5c0-.34.18-.492.456-.492a.736.736,0,0,1,.6.422l6.224,11.17a1.264,1.264,0,0,0,1.072.63h4.116c.482,0,.8-.567.476-1.125Z" transform="translate(-508.475 -73.024)" fill="#ee1d42"/>
                  <path id="Path_7" data-name="Path 7" d="M681.779,106.7h-3.412a.723.723,0,0,0-.721.72v18.593a.723.723,0,0,0,.721.721h3.412a.723.723,0,0,0,.721-.721V107.42A.723.723,0,0,0,681.779,106.7Z" transform="translate(-573.131 -98.531)" fill="#ee1d42"/>
                  <path id="Path_8" data-name="Path 8" d="M715.442,108.683a.705.705,0,0,0-.7-.7h-.685a1.678,1.678,0,0,1-1.77-1.886V96.746h0a.706.706,0,0,1,.706-.7H714.7a.7.7,0,0,0,.7-.7v-2.53a.705.705,0,0,0-.7-.7h-1.712a.707.707,0,0,1-.706-.706h0V88.37a.706.706,0,0,0-.7-.7h-3.251a.706.706,0,0,0-.706.7v.371c0,2.4-.543,3.376-2.673,3.376a.7.7,0,0,0-.7.7v2.52a.706.706,0,0,0,.7.706h1.773a.7.7,0,0,1,.706.7v10.732c0,3.238,2.37,4.777,5.24,4.777h2.068a.706.706,0,0,0,.7-.706V108.68Z" transform="translate(-593.511 -83.942)" fill="#ee1d42"/>
                  <path id="Path_9" data-name="Path 9" d="M522.585,113.7h9.15a.7.7,0,0,0,.705-.706v-4.769c0-4.277-3.2-7.129-7.706-7.129-4.623,0-7.707,2.852-7.707,7.437v6.858c0,4.585,3.084,7.437,7.707,7.437,4.553,0,7.1-2.2,7.624-5.985h0a.723.723,0,0,0-.8-.873h-3.116c-.542,0-.829.341-.943.873h0a2.529,2.529,0,0,1-2.762,2.054,2.675,2.675,0,0,1-2.85-3.006V114.4a.705.705,0,0,1,.7-.7Zm-.7-5.668c0-1.849.885-3.006,2.85-3.006s2.851,1.157,2.851,3.006v1.032a.7.7,0,0,1-.721.7H522.6a.72.72,0,0,1-.719-.721V108.03h0Z" transform="translate(-450.066 -94.234)" fill="#ee1d42"/>
                </g>
              </g>
            </g>
            <g id="Group_4" data-name="Group 4">
              <path id="Path_10" data-name="Path 10" d="M66.718,89.74A18.957,18.957,0,1,1,85.675,70.783,18.957,18.957,0,0,1,66.718,89.74Zm0-34.755a15.8,15.8,0,1,0,15.8,15.8,15.8,15.8,0,0,0-15.8-15.8Zm0,23.4c1,.056,2.721.992,5.824,3.284a1.2,1.2,0,0,0,1.56.053,13.031,13.031,0,0,0,2.592-2.36.849.849,0,0,0-.173-1.319c-4.075-3.154-4.4-3.136-6.076-3.86-.612-.264-.539-.836.157-.836h7.981a.967.967,0,0,0,1.078-.934h0a13.318,13.318,0,0,0,.076-1.422,13.172,13.172,0,0,0-.148-1.966v0a1.012,1.012,0,0,0-1.124-.944H54.972a1.014,1.014,0,0,0-1.125.944h0a13.275,13.275,0,0,0-.071,3.39h0a.967.967,0,0,0,1.078.934h7.981c.694,0,.768.571.158.836-1.676.724-2,.706-6.077,3.86a.848.848,0,0,0-.173,1.319,12.97,12.97,0,0,0,2.591,2.36,1.2,1.2,0,0,0,1.56-.053c3.106-2.295,4.828-3.231,5.824-3.287Zm0-12.081A6.76,6.76,0,0,0,73.4,60.527a1.042,1.042,0,0,0-.5-1.2,13.043,13.043,0,0,0-12.378,0,1.043,1.043,0,0,0-.5,1.2,6.763,6.763,0,0,0,6.7,5.773Z" transform="translate(-47.76 -51.827)" fill="#ee1d42"/>
            </g>
          </g>
          <text id="YOUR_PEOPLE_OUR_PASSION" data-name="YOUR PEOPLE, OUR PASSION" transform="translate(45.173 93.232)" font-size="12" font-family="SegoeUI-Semibold, Segoe UI" font-weight="600" letter-spacing="0.019em"><tspan x="0" y="0">YOUR PEOPLE, OUR PASSION</tspan></text>
          <text id="TM" transform="translate(210 51)" font-size="8" font-family="SegoeUI-Semibold, Segoe UI" font-weight="600"><tspan x="0" y="0">TM</tspan></text>
          <g id="Ellipse_39" data-name="Ellipse 39" transform="translate(207 39)" fill="none" stroke="#030000" stroke-width="1">
            <circle cx="8.953" cy="8.953" r="8.953" stroke="none"/>
            <circle cx="8.953" cy="8.953" r="8.453" fill="none"/>
          </g>
        </g>
      </g>
    </g>
  </g>
</svg>
