<svg xmlns="http://www.w3.org/2000/svg" xmlns:xlink="http://www.w3.org/1999/xlink" width="56" height="56" viewBox="0 0 56 56">
  <defs>
    <filter id="Ellipse_15" x="0" y="0" width="56" height="56" filterUnits="userSpaceOnUse">
      <feOffset dy="3" input="SourceAlpha"/>
      <feGaussianBlur stdDeviation="3" result="blur"/>
      <feFlood flood-opacity="0.161"/>
      <feComposite operator="in" in2="blur"/>
      <feComposite in="SourceGraphic"/>
    </filter>
  </defs>
  <g id="Group_319" data-name="Group 319" transform="translate(-454 -189)">
    <g transform="matrix(1, 0, 0, 1, 454, 189)" filter="url(#Ellipse_15)">
      <circle id="Ellipse_15-2" data-name="Ellipse 15" cx="19" cy="19" r="19" transform="translate(9 6)" fill="#12b1a1"/>
    </g>
    <g id="group" transform="translate(469.146 164.16)">
      <g id="Group_308" data-name="Group 308" transform="translate(19.268 50.177)">
        <g id="Group_307" data-name="Group 307" transform="translate(0 0)">
          <path id="Path_1461" data-name="Path 1461" d="M400.409,273.32h-1.915a4.98,4.98,0,0,1,.3,1.712v7.236a2.134,2.134,0,0,1-.123.715h3.165a2.147,2.147,0,0,0,2.144-2.144v-3.945A3.578,3.578,0,0,0,400.409,273.32Z" transform="translate(-398.494 -273.32)" fill="#fff"/>
        </g>
      </g>
      <g id="Group_310" data-name="Group 310" transform="translate(0 50.178)">
        <g id="Group_309" data-name="Group 309" transform="translate(0 0)">
          <path id="Path_1462" data-name="Path 1462" d="M5.186,275.033a4.98,4.98,0,0,1,.3-1.712H3.574A3.578,3.578,0,0,0,0,276.895v3.945a2.147,2.147,0,0,0,2.144,2.144H5.309a2.134,2.134,0,0,1-.123-.715Z" transform="translate(0 -273.321)" fill="#fff"/>
        </g>
      </g>
      <g id="Group_312" data-name="Group 312" transform="translate(6.616 48.316)">
        <g id="Group_311" data-name="Group 311">
          <path id="Path_1463" data-name="Path 1463" d="M144.78,234.815H140.4a3.578,3.578,0,0,0-3.574,3.574v7.236a.715.715,0,0,0,.715.715h10.095a.715.715,0,0,0,.715-.715v-7.236A3.578,3.578,0,0,0,144.78,234.815Z" transform="translate(-136.829 -234.815)" fill="#fff"/>
        </g>
      </g>
      <g id="Group_314" data-name="Group 314" transform="translate(8.08 38.84)">
        <g id="Group_313" data-name="Group 313" transform="translate(0 0)">
          <path id="Path_1464" data-name="Path 1464" d="M171.412,38.84a4.3,4.3,0,1,0,4.3,4.3A4.3,4.3,0,0,0,171.412,38.84Z" transform="translate(-167.114 -38.84)" fill="#fff"/>
        </g>
      </g>
      <g id="Group_316" data-name="Group 316" transform="translate(1.617 42.846)">
        <g id="Group_315" data-name="Group 315" transform="translate(0 0)">
          <path id="Path_1465" data-name="Path 1465" d="M36.657,121.689a3.213,3.213,0,1,0,3.214,3.214A3.218,3.218,0,0,0,36.657,121.689Z" transform="translate(-33.443 -121.689)" fill="#fff"/>
        </g>
      </g>
      <g id="Group_318" data-name="Group 318" transform="translate(16.711 42.846)">
        <g id="Group_317" data-name="Group 317" transform="translate(0 0)">
          <path id="Path_1466" data-name="Path 1466" d="M348.821,121.689a3.214,3.214,0,1,0,3.214,3.214A3.218,3.218,0,0,0,348.821,121.689Z" transform="translate(-345.607 -121.689)" fill="#fff"/>
        </g>
      </g>
    </g>
  </g>
</svg>
